<mxfile host="app.diagrams.net" agent="Mozilla/5.0 (Windows NT 10.0; Win64; x64) AppleWebKit/537.36 (KHTML, like Gecko) Chrome/134.0.0.0 Safari/537.36 OPR/119.0.0.0" version="28.1.0">
  <diagram id="C5RBs43oDa-KdzZeNtuy" name="Page-1">
    <mxGraphModel dx="985" dy="438" grid="1" gridSize="10" guides="1" tooltips="1" connect="1" arrows="1" fold="1" page="1" pageScale="1" pageWidth="827" pageHeight="1169" math="0" shadow="0">
      <root>
        <mxCell id="WIyWlLk6GJQsqaUBKTNV-0" />
        <mxCell id="WIyWlLk6GJQsqaUBKTNV-1" parent="WIyWlLk6GJQsqaUBKTNV-0" />
        <mxCell id="0qvh8JrCqkSb1pbGZx_Y-37" style="edgeStyle=orthogonalEdgeStyle;rounded=0;orthogonalLoop=1;jettySize=auto;html=1;exitX=0.5;exitY=1;exitDx=0;exitDy=0;entryX=0.5;entryY=0;entryDx=0;entryDy=0;" edge="1" parent="WIyWlLk6GJQsqaUBKTNV-1" source="WIyWlLk6GJQsqaUBKTNV-3" target="0qvh8JrCqkSb1pbGZx_Y-21">
          <mxGeometry relative="1" as="geometry" />
        </mxCell>
        <mxCell id="WIyWlLk6GJQsqaUBKTNV-3" value="Start" style="rounded=1;whiteSpace=wrap;html=1;fontSize=12;glass=0;strokeWidth=1;shadow=0;" parent="WIyWlLk6GJQsqaUBKTNV-1" vertex="1">
          <mxGeometry x="280" y="80" width="120" height="40" as="geometry" />
        </mxCell>
        <mxCell id="0qvh8JrCqkSb1pbGZx_Y-5" value="Stop" style="rounded=1;whiteSpace=wrap;html=1;" vertex="1" parent="WIyWlLk6GJQsqaUBKTNV-1">
          <mxGeometry x="280" y="600" width="120" height="40" as="geometry" />
        </mxCell>
        <mxCell id="0qvh8JrCqkSb1pbGZx_Y-18" style="edgeStyle=orthogonalEdgeStyle;rounded=0;orthogonalLoop=1;jettySize=auto;html=1;entryX=1;entryY=0.5;entryDx=0;entryDy=0;" edge="1" parent="WIyWlLk6GJQsqaUBKTNV-1" source="0qvh8JrCqkSb1pbGZx_Y-15" target="WIyWlLk6GJQsqaUBKTNV-3">
          <mxGeometry relative="1" as="geometry" />
        </mxCell>
        <mxCell id="0qvh8JrCqkSb1pbGZx_Y-15" value="Void" style="rounded=0;whiteSpace=wrap;html=1;" vertex="1" parent="WIyWlLk6GJQsqaUBKTNV-1">
          <mxGeometry x="520" y="120" width="120" height="60" as="geometry" />
        </mxCell>
        <mxCell id="0qvh8JrCqkSb1pbGZx_Y-16" value="Drivetrain.drivefor(áfram)&lt;div&gt;Drivetrain.turnfor(hægri)&lt;/div&gt;" style="rounded=0;whiteSpace=wrap;html=1;" vertex="1" parent="WIyWlLk6GJQsqaUBKTNV-1">
          <mxGeometry x="440" y="210" width="140" height="60" as="geometry" />
        </mxCell>
        <mxCell id="0qvh8JrCqkSb1pbGZx_Y-17" value="Drivetrain.drivefor(áfram)&lt;div&gt;Drivetrain.turnfor(vinstri)&lt;/div&gt;" style="rounded=0;whiteSpace=wrap;html=1;" vertex="1" parent="WIyWlLk6GJQsqaUBKTNV-1">
          <mxGeometry x="590" y="210" width="140" height="60" as="geometry" />
        </mxCell>
        <mxCell id="0qvh8JrCqkSb1pbGZx_Y-19" style="edgeStyle=orthogonalEdgeStyle;rounded=0;orthogonalLoop=1;jettySize=auto;html=1;exitX=0.5;exitY=0;exitDx=0;exitDy=0;entryX=0.367;entryY=0.933;entryDx=0;entryDy=0;entryPerimeter=0;" edge="1" parent="WIyWlLk6GJQsqaUBKTNV-1" source="0qvh8JrCqkSb1pbGZx_Y-16" target="0qvh8JrCqkSb1pbGZx_Y-15">
          <mxGeometry relative="1" as="geometry" />
        </mxCell>
        <mxCell id="0qvh8JrCqkSb1pbGZx_Y-20" style="edgeStyle=orthogonalEdgeStyle;rounded=0;orthogonalLoop=1;jettySize=auto;html=1;exitX=0.5;exitY=0;exitDx=0;exitDy=0;entryX=0.583;entryY=0.944;entryDx=0;entryDy=0;entryPerimeter=0;" edge="1" parent="WIyWlLk6GJQsqaUBKTNV-1" source="0qvh8JrCqkSb1pbGZx_Y-17" target="0qvh8JrCqkSb1pbGZx_Y-15">
          <mxGeometry relative="1" as="geometry" />
        </mxCell>
        <mxCell id="0qvh8JrCqkSb1pbGZx_Y-38" style="edgeStyle=orthogonalEdgeStyle;rounded=0;orthogonalLoop=1;jettySize=auto;html=1;exitX=0.5;exitY=1;exitDx=0;exitDy=0;entryX=0.5;entryY=0;entryDx=0;entryDy=0;" edge="1" parent="WIyWlLk6GJQsqaUBKTNV-1" source="0qvh8JrCqkSb1pbGZx_Y-21" target="0qvh8JrCqkSb1pbGZx_Y-22">
          <mxGeometry relative="1" as="geometry" />
        </mxCell>
        <mxCell id="0qvh8JrCqkSb1pbGZx_Y-21" value="void(haegri)" style="rounded=1;whiteSpace=wrap;html=1;" vertex="1" parent="WIyWlLk6GJQsqaUBKTNV-1">
          <mxGeometry x="280" y="140" width="120" height="20" as="geometry" />
        </mxCell>
        <mxCell id="0qvh8JrCqkSb1pbGZx_Y-39" style="edgeStyle=orthogonalEdgeStyle;rounded=0;orthogonalLoop=1;jettySize=auto;html=1;exitX=0.5;exitY=1;exitDx=0;exitDy=0;entryX=0.5;entryY=0;entryDx=0;entryDy=0;" edge="1" parent="WIyWlLk6GJQsqaUBKTNV-1" source="0qvh8JrCqkSb1pbGZx_Y-22" target="0qvh8JrCqkSb1pbGZx_Y-23">
          <mxGeometry relative="1" as="geometry" />
        </mxCell>
        <mxCell id="0qvh8JrCqkSb1pbGZx_Y-22" value="void(vinstri)" style="rounded=1;whiteSpace=wrap;html=1;" vertex="1" parent="WIyWlLk6GJQsqaUBKTNV-1">
          <mxGeometry x="280" y="170" width="120" height="20" as="geometry" />
        </mxCell>
        <mxCell id="0qvh8JrCqkSb1pbGZx_Y-40" style="edgeStyle=orthogonalEdgeStyle;rounded=0;orthogonalLoop=1;jettySize=auto;html=1;exitX=0.5;exitY=1;exitDx=0;exitDy=0;entryX=0.5;entryY=0;entryDx=0;entryDy=0;" edge="1" parent="WIyWlLk6GJQsqaUBKTNV-1" source="0qvh8JrCqkSb1pbGZx_Y-23" target="0qvh8JrCqkSb1pbGZx_Y-24">
          <mxGeometry relative="1" as="geometry" />
        </mxCell>
        <mxCell id="0qvh8JrCqkSb1pbGZx_Y-23" value="void(vinstri)" style="rounded=1;whiteSpace=wrap;html=1;" vertex="1" parent="WIyWlLk6GJQsqaUBKTNV-1">
          <mxGeometry x="280" y="200" width="120" height="20" as="geometry" />
        </mxCell>
        <mxCell id="0qvh8JrCqkSb1pbGZx_Y-41" style="edgeStyle=orthogonalEdgeStyle;rounded=0;orthogonalLoop=1;jettySize=auto;html=1;exitX=0.5;exitY=1;exitDx=0;exitDy=0;entryX=0.5;entryY=0;entryDx=0;entryDy=0;" edge="1" parent="WIyWlLk6GJQsqaUBKTNV-1" source="0qvh8JrCqkSb1pbGZx_Y-24" target="0qvh8JrCqkSb1pbGZx_Y-25">
          <mxGeometry relative="1" as="geometry" />
        </mxCell>
        <mxCell id="0qvh8JrCqkSb1pbGZx_Y-24" value="void(haegri)" style="rounded=1;whiteSpace=wrap;html=1;" vertex="1" parent="WIyWlLk6GJQsqaUBKTNV-1">
          <mxGeometry x="280" y="230" width="120" height="20" as="geometry" />
        </mxCell>
        <mxCell id="0qvh8JrCqkSb1pbGZx_Y-42" style="edgeStyle=orthogonalEdgeStyle;rounded=0;orthogonalLoop=1;jettySize=auto;html=1;exitX=0.5;exitY=1;exitDx=0;exitDy=0;entryX=0.5;entryY=0;entryDx=0;entryDy=0;" edge="1" parent="WIyWlLk6GJQsqaUBKTNV-1" source="0qvh8JrCqkSb1pbGZx_Y-25" target="0qvh8JrCqkSb1pbGZx_Y-26">
          <mxGeometry relative="1" as="geometry" />
        </mxCell>
        <mxCell id="0qvh8JrCqkSb1pbGZx_Y-25" value="void(haegri)" style="rounded=1;whiteSpace=wrap;html=1;" vertex="1" parent="WIyWlLk6GJQsqaUBKTNV-1">
          <mxGeometry x="280" y="260" width="120" height="20" as="geometry" />
        </mxCell>
        <mxCell id="0qvh8JrCqkSb1pbGZx_Y-43" style="edgeStyle=orthogonalEdgeStyle;rounded=0;orthogonalLoop=1;jettySize=auto;html=1;exitX=0.5;exitY=1;exitDx=0;exitDy=0;entryX=0.5;entryY=0;entryDx=0;entryDy=0;" edge="1" parent="WIyWlLk6GJQsqaUBKTNV-1" source="0qvh8JrCqkSb1pbGZx_Y-26" target="0qvh8JrCqkSb1pbGZx_Y-27">
          <mxGeometry relative="1" as="geometry" />
        </mxCell>
        <mxCell id="0qvh8JrCqkSb1pbGZx_Y-26" value="void(vinstri)" style="rounded=1;whiteSpace=wrap;html=1;" vertex="1" parent="WIyWlLk6GJQsqaUBKTNV-1">
          <mxGeometry x="280" y="290" width="120" height="20" as="geometry" />
        </mxCell>
        <mxCell id="0qvh8JrCqkSb1pbGZx_Y-44" style="edgeStyle=orthogonalEdgeStyle;rounded=0;orthogonalLoop=1;jettySize=auto;html=1;exitX=0.5;exitY=1;exitDx=0;exitDy=0;" edge="1" parent="WIyWlLk6GJQsqaUBKTNV-1" source="0qvh8JrCqkSb1pbGZx_Y-27" target="0qvh8JrCqkSb1pbGZx_Y-28">
          <mxGeometry relative="1" as="geometry" />
        </mxCell>
        <mxCell id="0qvh8JrCqkSb1pbGZx_Y-27" value="void(haegri)" style="rounded=1;whiteSpace=wrap;html=1;" vertex="1" parent="WIyWlLk6GJQsqaUBKTNV-1">
          <mxGeometry x="280" y="320" width="120" height="20" as="geometry" />
        </mxCell>
        <mxCell id="0qvh8JrCqkSb1pbGZx_Y-45" style="edgeStyle=orthogonalEdgeStyle;rounded=0;orthogonalLoop=1;jettySize=auto;html=1;exitX=0.5;exitY=1;exitDx=0;exitDy=0;entryX=0.5;entryY=0;entryDx=0;entryDy=0;" edge="1" parent="WIyWlLk6GJQsqaUBKTNV-1" source="0qvh8JrCqkSb1pbGZx_Y-28" target="0qvh8JrCqkSb1pbGZx_Y-29">
          <mxGeometry relative="1" as="geometry" />
        </mxCell>
        <mxCell id="0qvh8JrCqkSb1pbGZx_Y-28" value="void(haegri)" style="rounded=1;whiteSpace=wrap;html=1;" vertex="1" parent="WIyWlLk6GJQsqaUBKTNV-1">
          <mxGeometry x="280" y="350" width="120" height="20" as="geometry" />
        </mxCell>
        <mxCell id="0qvh8JrCqkSb1pbGZx_Y-46" style="edgeStyle=orthogonalEdgeStyle;rounded=0;orthogonalLoop=1;jettySize=auto;html=1;exitX=0.5;exitY=1;exitDx=0;exitDy=0;entryX=0.5;entryY=0;entryDx=0;entryDy=0;" edge="1" parent="WIyWlLk6GJQsqaUBKTNV-1" source="0qvh8JrCqkSb1pbGZx_Y-29" target="0qvh8JrCqkSb1pbGZx_Y-30">
          <mxGeometry relative="1" as="geometry" />
        </mxCell>
        <mxCell id="0qvh8JrCqkSb1pbGZx_Y-29" value="void(vinstri)" style="rounded=1;whiteSpace=wrap;html=1;" vertex="1" parent="WIyWlLk6GJQsqaUBKTNV-1">
          <mxGeometry x="280" y="380" width="120" height="20" as="geometry" />
        </mxCell>
        <mxCell id="0qvh8JrCqkSb1pbGZx_Y-47" style="edgeStyle=orthogonalEdgeStyle;rounded=0;orthogonalLoop=1;jettySize=auto;html=1;exitX=0.5;exitY=1;exitDx=0;exitDy=0;entryX=0.5;entryY=0;entryDx=0;entryDy=0;" edge="1" parent="WIyWlLk6GJQsqaUBKTNV-1" source="0qvh8JrCqkSb1pbGZx_Y-30" target="0qvh8JrCqkSb1pbGZx_Y-34">
          <mxGeometry relative="1" as="geometry" />
        </mxCell>
        <mxCell id="0qvh8JrCqkSb1pbGZx_Y-30" value="void(haegri)" style="rounded=1;whiteSpace=wrap;html=1;" vertex="1" parent="WIyWlLk6GJQsqaUBKTNV-1">
          <mxGeometry x="280" y="410" width="120" height="20" as="geometry" />
        </mxCell>
        <mxCell id="0qvh8JrCqkSb1pbGZx_Y-51" style="edgeStyle=orthogonalEdgeStyle;rounded=0;orthogonalLoop=1;jettySize=auto;html=1;exitX=0.5;exitY=1;exitDx=0;exitDy=0;entryX=0.5;entryY=0;entryDx=0;entryDy=0;" edge="1" parent="WIyWlLk6GJQsqaUBKTNV-1" source="0qvh8JrCqkSb1pbGZx_Y-31" target="0qvh8JrCqkSb1pbGZx_Y-35">
          <mxGeometry relative="1" as="geometry" />
        </mxCell>
        <mxCell id="0qvh8JrCqkSb1pbGZx_Y-31" value="void(haegri)" style="rounded=1;whiteSpace=wrap;html=1;" vertex="1" parent="WIyWlLk6GJQsqaUBKTNV-1">
          <mxGeometry x="280" y="530" width="120" height="20" as="geometry" />
        </mxCell>
        <mxCell id="0qvh8JrCqkSb1pbGZx_Y-50" style="edgeStyle=orthogonalEdgeStyle;rounded=0;orthogonalLoop=1;jettySize=auto;html=1;exitX=0.5;exitY=1;exitDx=0;exitDy=0;" edge="1" parent="WIyWlLk6GJQsqaUBKTNV-1" source="0qvh8JrCqkSb1pbGZx_Y-32" target="0qvh8JrCqkSb1pbGZx_Y-31">
          <mxGeometry relative="1" as="geometry" />
        </mxCell>
        <mxCell id="0qvh8JrCqkSb1pbGZx_Y-32" value="void(vinstri)" style="rounded=1;whiteSpace=wrap;html=1;" vertex="1" parent="WIyWlLk6GJQsqaUBKTNV-1">
          <mxGeometry x="280" y="500" width="120" height="20" as="geometry" />
        </mxCell>
        <mxCell id="0qvh8JrCqkSb1pbGZx_Y-49" style="edgeStyle=orthogonalEdgeStyle;rounded=0;orthogonalLoop=1;jettySize=auto;html=1;exitX=0.5;exitY=1;exitDx=0;exitDy=0;entryX=0.5;entryY=0;entryDx=0;entryDy=0;" edge="1" parent="WIyWlLk6GJQsqaUBKTNV-1" source="0qvh8JrCqkSb1pbGZx_Y-33" target="0qvh8JrCqkSb1pbGZx_Y-32">
          <mxGeometry relative="1" as="geometry" />
        </mxCell>
        <mxCell id="0qvh8JrCqkSb1pbGZx_Y-33" value="void(vinstri)" style="rounded=1;whiteSpace=wrap;html=1;" vertex="1" parent="WIyWlLk6GJQsqaUBKTNV-1">
          <mxGeometry x="280" y="470" width="120" height="20" as="geometry" />
        </mxCell>
        <mxCell id="0qvh8JrCqkSb1pbGZx_Y-48" style="edgeStyle=orthogonalEdgeStyle;rounded=0;orthogonalLoop=1;jettySize=auto;html=1;exitX=0.5;exitY=1;exitDx=0;exitDy=0;entryX=0.5;entryY=0;entryDx=0;entryDy=0;" edge="1" parent="WIyWlLk6GJQsqaUBKTNV-1" source="0qvh8JrCqkSb1pbGZx_Y-34" target="0qvh8JrCqkSb1pbGZx_Y-33">
          <mxGeometry relative="1" as="geometry" />
        </mxCell>
        <mxCell id="0qvh8JrCqkSb1pbGZx_Y-34" value="void(haegri)" style="rounded=1;whiteSpace=wrap;html=1;" vertex="1" parent="WIyWlLk6GJQsqaUBKTNV-1">
          <mxGeometry x="280" y="440" width="120" height="20" as="geometry" />
        </mxCell>
        <mxCell id="0qvh8JrCqkSb1pbGZx_Y-52" style="edgeStyle=orthogonalEdgeStyle;rounded=0;orthogonalLoop=1;jettySize=auto;html=1;exitX=0.5;exitY=1;exitDx=0;exitDy=0;entryX=0.5;entryY=0;entryDx=0;entryDy=0;" edge="1" parent="WIyWlLk6GJQsqaUBKTNV-1" source="0qvh8JrCqkSb1pbGZx_Y-35" target="0qvh8JrCqkSb1pbGZx_Y-5">
          <mxGeometry relative="1" as="geometry" />
        </mxCell>
        <mxCell id="0qvh8JrCqkSb1pbGZx_Y-35" value="Drivefor(áfram)" style="rounded=1;whiteSpace=wrap;html=1;" vertex="1" parent="WIyWlLk6GJQsqaUBKTNV-1">
          <mxGeometry x="280" y="560" width="120" height="20" as="geometry" />
        </mxCell>
      </root>
    </mxGraphModel>
  </diagram>
</mxfile>
